#!OML:ASF X:\für Bonn\!DataBase\2005_08_11_Bastian_Final\c3d\Bastian.ASF
:FULLY-SPECIFIED
:DEGREES
548
root 1.36566 1.21687 25.3283 -809.383 -175.761 -717.75
lowerback -0.262653 -1.92289 -4.13427
upperback 8.22318 -2.81542 -0.254294
thorax 8.99536 -1.89867 1.77324
lowerneck -4.06182 -2.81685 -4.22737
upperneck 22.1097 -1.81697 -2.26289
head 7.48968 -0.796433 -0.0857676
rclavicle -4.05521e-014 -1.5704e-014
rhumerus -50.526 52.1781 -95.7917
rradius 27.7809
rwrist -0.42169
rhand -14.8096 1.25892
rfingers 7.12502
rthumb 11.3484 -28.414
lclavicle -4.05521e-014 -1.5704e-014
lhumerus -40.7504 -42.5157 92.3359
lradius 21.9528
lwrist 16.4524
lhand -12.2842 -10.5701
lfingers 7.12502
lthumb 13.7831 18.9533
rfemur -12.9164 10.8611 18.2792
rtibia 33.6066
rfoot -7.82102 -22.5717
rtoes 1.41134
lfemur -4.93612 3.19408 -22.2735
ltibia 16.3909
lfoot 3.21204 4.27901
ltoes -28.9412
549
root 1.36686 1.21887 25.3282 -809.336 -175.782 -717.771
lowerback -0.345089 -1.9338 -4.13476
upperback 8.0463 -2.81035 -0.223817
thorax 8.85005 -1.88194 1.81018
lowerneck -4.37306 -2.8276 -4.09297
upperneck 21.8783 -1.89509 -2.25159
head 7.46639 -0.848166 -0.116106
rclavicle 4.05521e-014 -2.90226e-014
rhumerus -50.8776 52.2235 -96.1774
rradius 27.5402
rwrist -0.482749
rhand -14.6864 1.06477
rfingers 7.12502
rthumb 11.4672 -28.6016
lclavicle 4.05521e-014 -2.90226e-014
lhumerus -41.1824 -42.8242 92.7039
lradius 21.9174
lwrist 16.5442
lhand -11.8915 -10.6504
lfingers 7.12502
lthumb 14.1615 18.847
rfemur -12.9169 10.8955 18.2637
rtibia 33.5806
rfoot -8.06224 -23.01
rtoes 1.29283
lfemur -4.97466 3.34277 -22.2232
ltibia 16.3869
lfoot 3.17023 4.2305
ltoes -28.7217
550
root 1.36759 1.22097 25.3276 -809.324 -175.807 -717.782
lowerback -0.381103 -1.95094 -4.12107
upperback 7.88023 -2.81958 -0.187811
thorax 8.69009 -1.87288 1.84518
lowerneck -4.68751 -2.82621 -4.01417
upperneck 21.6224 -1.95557 -2.21765
head 7.43692 -0.894487 -0.128456
rclavicle -1.59028e-015 -1.19271e-015
rhumerus -51.2429 52.2981 -96.5582
rradius 27.3309
rwrist -0.578318
rhand -14.5553 0.917425
rfingers 7.12502
rthumb 11.5937 -28.7419
lclavicle -1.59028e-015 -1.19271e-015
lhumerus -41.5435 -43.0055 92.9986
lradius 21.849
lwrist 16.5131
lhand -11.4831 -10.7354
lfingers 7.12502
lthumb 14.555 18.734
rfemur -12.8762 10.9783 18.2629
rtibia 33.5539
rfoot -8.33602 -23.4951
rtoes 1.17829
lfemur -4.97122 3.42441 -22.1693
ltibia 16.381
lfoot 3.12415 4.18619
ltoes -28.5125
551
root 1.36863 1.2221 25.3271 -809.301 -175.828 -717.802
lowerback -0.416689 -1.96252 -4.11248
upperback 7.71465 -2.82133 -0.154206
thorax 8.53051 -1.86066 1.88095
lowerneck -5.04098 -2.83284 -3.93107
upperneck 21.4089 -2.02031 -2.19097
head 7.42844 -0.942268 -0.144734
rclavicle -4.45278e-014 4.77083e-015
rhumerus -51.7456 52.4915 -97.1015
rradius 27.1664
rwrist -0.807847
rhand -14.4552 0.660941
rfingers 7.12502
rthumb 11.6902 -28.9929
lclavicle -4.45278e-014 4.77083e-015
lhumerus -41.9885 -43.3232 93.3971
lradius 21.8324
lwrist 16.6619
lhand -11.1682 -10.7377
lfingers 7.12502
lthumb 14.8585 18.7095
rfemur -12.8526 11.0501 18.2538
rtibia 33.5324
rfoot -8.63317 -23.9252
rtoes 1.14049
lfemur -4.98746 3.60958 -22.1216
ltibia 16.3748
lfoot 3.12471 4.04511
ltoes -28.2596
552
root 1.3695 1.22366 25.3268 -809.266 -175.853 -717.813
lowerback -0.466477 -1.97842 -4.09899
upperback 7.54652 -2.82854 -0.117825
thorax 8.37719 -1.85086 1.91577
lowerneck -5.34071 -2.84015 -3.884
upperneck 21.153 -2.09196 -2.12721
head 7.39761 -0.991954 -0.14271
rclavicle -2.06736e-014 -1.98785e-015
rhumerus -52.0957 52.5631 -97.474
rradius 26.9683
rwrist -0.884935
rhand -14.3011 0.510056
rfingers 7.12502
rthumb 11.8387 -29.1353
lclavicle -2.06736e-014 -1.98785e-015
lhumerus -42.4295 -43.6047 93.7894
lradius 21.8129
lwrist 16.7834
lhand -10.8681 -10.7154
lfingers 7.12502
lthumb 15.1476 18.7102
rfemur -12.8453 11.0562 18.244
rtibia 33.514
rfoot -8.9117 -24.2724
rtoes 1.26739
lfemur -5.00954 3.68636 -22.0699
ltibia 16.3651
lfoot 3.09057 3.96539
ltoes -27.9856
553
root 1.37033 1.22431 25.3269 -809.255 -175.9 -717.824
lowerback -0.466632 -1.98919 -4.0394
upperback 7.37684 -2.83363 -0.0954446
thorax 8.18961 -1.83651 1.91243
lowerneck -5.69263 -2.85235 -3.80024
upperneck 20.9828 -2.16321 -2.07157
head 7.40362 -1.03728 -0.150177
rclavicle 1.19271e-014 -1.07344e-014
rhumerus -52.5151 52.6262 -97.9327
rradius 26.7979
rwrist -1.02087
rhand -14.1545 0.30673
rfingers 7.12502
rthumb 11.9801 -29.3304
lclavicle 1.19271e-014 -1.07344e-014
lhumerus -42.8779 -43.8561 94.1419
lradius 21.7965
lwrist 16.9174
lhand -10.5918 -10.6682
lfingers 7.12502
lthumb 15.4137 18.7372
rfemur -12.8183 11.1223 18.2717
rtibia 33.4994
rfoot -9.15717 -24.6418
rtoes 1.27563
lfemur -5.01379 3.80132 -21.9962
ltibia 16.3527
lfoot 3.06052 3.84749
ltoes -27.792
554
root 1.37151 1.22592 25.3265 -809.22 -175.9 -717.833
lowerback -0.514593 -2.01216 -4.04844
upperback 7.2239 -2.85059 -0.0684278
thorax 8.05419 -1.83432 1.94831
lowerneck -6.08893 -2.85323 -3.73464
upperneck 20.8206 -2.2067 -2.05173
head 7.42017 -1.07428 -0.16476
rclavicle 4.77083e-015 -7.95139e-016
rhumerus -53.0361 52.8828 -98.5249
rradius 26.6737
rwrist -1.34021
rhand -14.047 0.0616375
rfingers 7.12502
rthumb 12.0838 -29.5694
lclavicle 4.77083e-015 -7.95139e-016
lhumerus -43.4089 -44.2483 94.6249
lradius 21.8488
lwrist 17.2534
lhand -10.405 -10.5102
lfingers 7.12502
lthumb 15.5936 18.8812
rfemur -12.8112 11.1609 18.2411
rtibia 33.4867
rfoot -9.43623 -24.9754
rtoes 1.3902
lfemur -5.03576 3.91973 -21.976
ltibia 16.3394
lfoot 3.04295 3.69625
ltoes -27.4363
555
root 1.37239 1.22724 25.3266 -809.197 -175.924 -717.836
lowerback -0.550061 -2.02298 -4.00796
upperback 7.08501 -2.8547 -0.0555438
thorax 7.92227 -1.82316 1.94277
lowerneck -6.54536 -2.86621 -3.64493
upperneck 20.7137 -2.27145 -1.99956
head 7.46573 -1.11642 -0.175642
rclavicle -1.43125e-014 8.34896e-015
rhumerus -53.3647 52.9597 -98.9298
rradius 26.5133
rwrist -1.4738
rhand -13.9112 -0.167888
rfingers 7.12502
rthumb 12.2147 -29.7912
lclavicle -1.43125e-014 8.34896e-015
lhumerus -43.8502 -44.5694 94.9943
lradius 21.8652
lwrist 17.5143
lhand -10.2135 -10.3085
lfingers 7.12502
lthumb 15.778 19.0685
rfemur -12.7856 11.283 18.2463
rtibia 33.4724
rfoot -9.7627 -25.3852
rtoes 1.59245
lfemur -5.05498 4.02332 -21.9286
ltibia 16.3293
lfoot 3.01768 3.54721
ltoes -27.2775
556
root 1.37352 1.22854 25.3261 -809.174 -175.946 -717.846
lowerback -0.563507 -2.03738 -3.98676
upperback 6.92429 -2.86442 -0.0218658
thorax 7.75684 -1.8156 1.97096
lowerneck -6.9488 -2.87885 -3.62726
upperneck 20.6179 -2.3251 -1.93268
head 7.50713 -1.15425 -0.168069
rclavicle 1.51076e-014 -1.47101e-014
rhumerus -53.8565 53.1179 -99.4316
rradius 26.4001
rwrist -1.70869
rhand -13.7881 -0.370088
rfingers 7.12502
rthumb 12.3334 -29.9863
lclavicle 1.51076e-014 -1.47101e-014
lhumerus -44.2366 -44.7077 95.3113
lradius 21.8361
lwrist 17.6223
lhand -10.0369 -10.1124
lfingers 7.12502
lthumb 15.9481 19.251
rfemur -12.7725 11.3156 18.2408
rtibia 33.4627
rfoot -10.0635 -25.7001
rtoes 1.89732
lfemur -5.06682 4.13964 -21.8844
ltibia 16.3112
lfoot 3.0091 3.39904
ltoes -26.9666
557
root 1.3747 1.23019 25.3269 -809.15 -175.969 -717.855
lowerback -0.589781 -2.05416 -3.96108
upperback 6.77853 -2.87758 0.00460324
thorax 7.61506 -1.81046 1.98761
lowerneck -7.38128 -2.88709 -3.58646
upperneck 20.5245 -2.3734 -1.87519
head 7.55398 -1.18892 -0.167524
rclavicle 1.98785e-014 8.15017e-015
rhumerus -54.2922 53.2786 -99.9159
rradius 26.2802
rwrist -1.90183
rhand -13.6505 -0.602219
rfingers 7.12502
rthumb 12.4661 -30.2104
lclavicle 1.98785e-014 8.15017e-015
lhumerus -44.6775 -44.9275 95.6759
lradius 21.851
lwrist 17.8663
lhand -9.91632 -9.80789
lfingers 7.12502
lthumb 16.0642 19.5462
rfemur -12.7649 11.2644 18.2377
rtibia 33.4533
rfoot -10.2594 -25.9377
rtoes 1.87603
lfemur -5.0747 4.24934 -21.8373
ltibia 16.2967
lfoot 2.99629 3.23907
ltoes -26.6192
558
root 1.37522 1.23112 25.3265 -809.117 -175.968 -717.876
lowerback -0.612757 -2.06091 -3.9441
upperback 6.62774 -2.8763 0.0232151
thorax 7.46528 -1.79817 2.00224
lowerneck -7.81458 -2.90535 -3.55758
upperneck 20.4444 -2.43073 -1.82242
head 7.60577 -1.2281 -0.167479
rclavicle 7.95139e-016 -1.82882e-014
rhumerus -54.7856 53.4563 -100.463
rradius 26.1803
rwrist -2.18981
rhand -13.5585 -0.850359
rfingers 7.12502
rthumb 12.5548 -30.4531
lclavicle 7.95139e-016 -1.82882e-014
lhumerus -45.019 -45.0232 95.9386
lradius 21.8075
lwrist 17.9741
lhand -9.79317 -9.51718
lfingers 7.12502
lthumb 16.1828 19.8273
rfemur -12.7703 11.2637 18.2054
rtibia 33.4471
rfoot -10.5129 -26.1709
rtoes 2.13365
lfemur -5.09547 4.28341 -21.8254
ltibia 16.2834
lfoot 2.96414 3.1494
ltoes -26.2626
559
root 1.37658 1.2323 25.326 -809.094 -175.968 -717.876
lowerback -0.637205 -2.07941 -3.93213
upperback 6.50225 -2.89179 0.0316668
thorax 7.3449 -1.79611 2.00666
lowerneck -8.28495 -2.90602 -3.49961
upperneck 20.3599 -2.46933 -1.7637
head 7.66214 -1.25634 -0.169352
rclavicle 1.43125e-014 -1.98785e-015
rhumerus -55.1609 53.6097 -100.929
rradius 26.0625
rwrist -2.38549
rhand -13.4219 -1.09313
rfingers 7.12502
rthumb 12.6865 -30.6878
lclavicle 1.43125e-014 -1.98785e-015
lhumerus -45.2958 -45.0953 96.108
lradius 21.7668
lwrist 18.0439
lhand -9.6188 -9.19924
lfingers 7.12502
lthumb 16.3507 20.1315
rfemur -12.7601 11.2965 18.1825
rtibia 33.4456
rfoot -10.7736 -26.4325
rtoes 2.37263
lfemur -5.11551 4.40582 -21.8153
ltibia 16.2666
lfoot 2.97256 2.99672
ltoes -26.2584
560
root 1.37758 1.23279 25.3263 -809.072 -175.993 -717.877
lowerback -0.641823 -2.09376 -3.90157
upperback 6.35892 -2.90458 0.0634877
thorax 7.19399 -1.79151 2.02681
lowerneck -8.74751 -2.92435 -3.46185
upperneck 20.3299 -2.51785 -1.73129
head 7.73549 -1.29035 -0.177449
rclavicle 7.15625e-015 -3.37934e-015
rhumerus -55.6301 53.7784 -101.454
rradius 25.9559
rwrist -2.6531
rhand -13.3321 -1.33593
rfingers 7.12502
rthumb 12.773 -30.9252
lclavicle 7.15625e-015 -3.37934e-015
lhumerus -45.5493 -45.0561 96.2678
lradius 21.7097
lwrist 18.0287
lhand -9.49566 -8.88055
lfingers 7.12502
lthumb 16.4693 20.4404
rfemur -12.7609 11.1856 18.183
rtibia 33.4429
rfoot -10.9731 -26.5344
rtoes 2.6048
lfemur -5.1368 4.5804 -21.774
ltibia 16.2537
lfoot 3.00344 2.76086
ltoes -26.3447
